<svg style="height: 512px; width: 512px;" xmlns="http://www.w3.org/2000/svg" viewBox="0 0 512 512"><g class="" style="" transform="translate(0,0)"><g><path d="M275.5 96L179.5 192L83.5 192L83.5 320L179.5 320L275.5 416L275.5 96Z" class="" fill="#ffffff" fill-opacity="1"></path><path d="M326.9599914550781 123.66799926757812L322.29998779296875 141.05499267578125C374.3659973144531 155.0050048828125 410.5 202.09500122070312 410.5 256C410.5 309.90399169921875 374.3659973144531 356.9939880371094 322.29998779296875 370.94500732421875L326.9599914550781 388.3320007324219C386.80999755859375 372.2950134277344 428.5 317.9620056152344 428.5 256C428.5 194.03700256347656 386.80999755859375 139.7050018310547 326.9599914550781 123.66799926757812Z" class="" fill="#ffffff" fill-opacity="0"></path><path d="M314.5350036621094 170.0330047607422L309.87701416015625 187.4199981689453C340.9599914550781 195.7480010986328 362.5 223.82200622558594 362.5 256C362.5 288.1780090332031 340.9599914550781 316.25201416015625 309.87701416015625 324.5799865722656L314.5350036621094 341.9670104980469C353.4020080566406 331.552001953125 380.5 296.23699951171875 380.5 256C380.5 215.76199340820312 353.4020080566406 180.447998046875 314.5350036621094 170.0330047607422Z" class="selected" fill="#ffffff" fill-opacity="1"></path><path d="M302.1109924316406 216.39599609375L297.4540100097656 233.7830047607422C307.54998779296875 236.49000549316406 314.5 245.5469970703125 314.5 256C314.5 266.4530029296875 307.54998779296875 275.510009765625 297.4530029296875 278.2170104980469L302.1109924316406 295.60400390625C319.9949951171875 290.81201171875 332.5010070800781 274.5140075683594 332.5010070800781 256C332.5010070800781 237.48699951171875 319.9949951171875 221.18800354003906 302.1109924316406 216.39599609375Z" class="" fill="#ffffff" fill-opacity="1"></path></g></g></svg>